HIERARCHY
ROOT Hips
{
	OFFSET	0.00	0.00	0.00
	CHANNELS 6 Xposition Yposition Zposition Zrotation Xrotation Yrotation
	JOINT Chest
	{
		OFFSET	 0.000000	 4.570000	 0.000000
		CHANNELS 3 Zrotation Xrotation Yrotation
		JOINT Neck
		{
			OFFSET	 0.000000	 17.620001	 0.000000
			CHANNELS 3 Zrotation Xrotation Yrotation
			JOINT Head
			{
				OFFSET	 0.000000	 5.190000	 0.000000
				CHANNELS 3 Zrotation Xrotation Yrotation
				End Site 
				{
					OFFSET	 0.000000	 4.140008	 0.000000
				}
			}
		}
		JOINT LeftCollar
		{
			OFFSET	 1.060000	 15.330000	 01.760000
			CHANNELS 3 Zrotation Xrotation Yrotation
			JOINT LeftShoulder
			{
				OFFSET	 5.00000	 0.000000	 0.000000
				CHANNELS 3 Zrotation Xrotation Yrotation
				JOINT LeftElbow
				{
					OFFSET	 0.000000	-11.90000	 0.000000
					CHANNELS 3 Zrotation Xrotation Yrotation
					JOINT LeftWrist
					{
						OFFSET	 0.000000	-9.520000	 0.000000
						CHANNELS 3 Zrotation Xrotation Yrotation
						End Site 
						{
							OFFSET	 0.000000	-7.0	 0.000000
						}
					}
				}
			}
		}
		JOINT RightCollar
		{
			OFFSET	-1.060000	 15.330000	 01.760000
			CHANNELS 3 Zrotation Xrotation Yrotation
			JOINT RightShoulder
			{
				OFFSET	-5.000000	 0.000000	 0.000000
				CHANNELS 3 Zrotation Xrotation Yrotation
				JOINT RightElbow
				{
					OFFSET	 0.000000	-11.900000	 0.000000
					CHANNELS 3 Zrotation Xrotation Yrotation
					JOINT RightWrist
					{
						OFFSET	 0.000000	-9.520000	 0.000000
						CHANNELS 3 Zrotation Xrotation Yrotation
						End Site 
						{
							OFFSET	 0.000000	-7.0	 0.000000
						}
					}
				}
			}
		}
	}
	JOINT LeftHip
	{
		OFFSET	 3.430000	 0.000000	 0.000000
		CHANNELS 3 Zrotation Xrotation Yrotation
		JOINT LeftKnee
		{
			OFFSET	 0.000000	-19.0	 0.000000
			CHANNELS 3 Zrotation Xrotation Yrotation
			JOINT LeftAnkle
			{
				OFFSET	 0.000000	-15.00000	 0.000000
				CHANNELS 3 Zrotation Xrotation Yrotation
				End Site 
				{
					OFFSET	 0.000000	-3.0	 0.000000
				}
			}
		}
	}
	JOINT RightHip
	{
		OFFSET	-3.430000	 0.000000	 0.000000
		CHANNELS 3 Zrotation Xrotation Yrotation
		JOINT RightKnee
		{
			OFFSET	 0.000000	-19.0	 0.000000
			CHANNELS 3 Zrotation Xrotation Yrotation
			JOINT RightAnkle
			{
				OFFSET	 0.000000	-15.00000	 0.000000
				CHANNELS 3 Zrotation Xrotation Yrotation
				End Site 
				{
					OFFSET	 0.000000	-3.0	 0.000000
				}
			}
		}
	}
}
MOTION
Frames: 18
Frame Time: 0.033333333
0.073918	32.694526	-1.519929	-3.586094	4.443338	76.561405	-3.249369	-1.977559	5.667982	-5.201098	18.413163	0.492324	-358.529460	337.712902	-10.918755	28.958130	22.266170	24.015073	5.751974	21.775853	15.745947	111.874384	-136.200525	108.814281	-192.361180	-198.323362	129.766050	326.644663	-337.261181	-18.053024	-19.196782	-8.378737	72.694719	106.780053	-140.102052	132.862844	-319.475942	-351.521195	-9.977422	-2.192895	-12.830904	16.708246	-357.349122	-330.643083	-0.566226	350.761377	354.864900	-0.905854	356.718586	-357.207245	-0.673689	-3.929321	49.673079	3.264081	-329.230764	345.887300	-2.275075	
0.130721	32.710326	-1.828439	-2.886323	5.440531	75.645033	-4.242983	-1.536696	5.446014	-4.551580	18.390521	0.424253	-359.243843	337.588729	-11.206185	29.905535	22.426657	22.878836	5.174954	20.780614	15.021408	112.131725	-135.311726	110.063086	-192.245176	-197.801467	129.656385	327.371258	-337.297408	-18.577366	-19.734735	-6.266861	72.810743	106.127347	-138.995275	131.986148	-319.449523	-351.292411	-10.056885	-3.869002	-10.943631	16.181460	-357.351335	-330.390639	-0.574727	351.313366	353.190985	-0.423932	354.541914	357.554137	-1.478634	-6.703720	58.731559	6.172636	-327.592147	349.478012	-1.351081	
0.094943	32.647149	-2.106460	-3.098817	6.545891	75.269598	-5.350490	-1.976805	5.148024	-3.417145	18.414056	0.310646	-359.954648	337.258367	-11.286496	31.999500	22.663851	20.978915	3.706735	19.991121	13.610348	112.493882	-134.340118	114.078431	-189.548290	-198.691441	128.671198	327.975757	-337.437372	-19.820828	-19.536594	-5.123928	73.184642	108.413274	-138.486576	134.249113	-319.079901	-352.412452	-9.904418	-5.626668	-10.554824	15.530975	-357.313796	-330.553525	-0.579948	-8.111468	-7.293657	0.804912	352.521817	351.315825	-2.682054	-8.700647	65.784002	8.691064	-323.140694	356.435680	-7.488200	
-0.029606	32.665707	-2.298127	-2.660973	6.741806	74.276495	-5.720429	-1.255609	5.116017	-2.596028	18.145442	0.215923	359.759331	336.993683	-10.920850	33.440516	22.855706	19.379381	2.693417	18.365152	12.492313	113.116577	-132.164403	116.404834	-188.470718	-198.186034	128.295811	329.359772	-337.453382	-20.357851	-19.611720	-3.914331	73.402006	107.886967	-137.882446	134.637245	-319.042581	-352.064878	-9.971909	-6.424985	-8.837618	15.454078	-357.192956	-330.551586	-0.615840	-7.801146	-8.585906	1.572510	352.301913	346.878415	-3.185888	-13.046072	69.280499	12.929335	-322.858061	356.645503	-8.563640	
-0.194454	32.718135	-2.432940	-3.090595	6.506746	73.492287	-5.537850	-1.318482	5.153638	-1.528296	17.989855	0.109399	359.339548	336.787084	-11.052965	35.265536	23.047797	17.576083	1.623236	16.616351	11.385087	114.157839	-130.111781	118.674124	-187.474904	-197.703577	127.996485	330.842333	-337.498735	-21.110741	-19.762698	-2.278431	73.667099	287.122594	317.373419	-44.864339	-318.976410	-351.475268	-10.111460	-6.487998	-7.822059	15.563888	-357.085176	-330.712997	-0.641221	-8.037779	-9.557827	2.021232	353.108940	342.292899	-3.141311	-15.557958	70.312445	15.315377	-322.715774	356.388278	-9.216094	
-0.357954	32.817884	-2.514529	-3.627308	6.020264	72.993437	-5.176266	-1.418316	5.231254	359.701193	-342.079961	-0.005405	358.712072	336.633159	-11.673548	37.274196	23.231913	15.628540	0.625905	14.821155	10.403043	115.287989	-128.322107	120.938004	-186.557746	-197.199003	127.730613	332.407020	-337.577009	-22.079585	-20.098220	-0.349948	73.878152	286.277645	316.909403	-44.164296	-318.986354	-351.352790	-10.145967	-6.283721	-6.636927	15.779033	-356.988160	-331.313152	-0.644148	-8.388751	-10.328585	2.220288	354.331845	338.730710	-2.650723	-14.713006	68.975107	14.319497	-322.883906	356.037206	-9.191083	
-0.495831	32.964870	-2.546345	-3.725142	5.392327	72.667671	-4.897417	-1.025689	5.323448	-358.966428	-342.150312	-0.126185	357.947364	336.457267	-12.632542	39.321463	23.396000	13.641143	-0.199578	13.052814	9.616600	116.194301	-126.800997	123.166708	-185.685982	-196.793536	127.479918	334.121097	-337.680226	-23.206991	-20.715299	1.674211	73.918047	285.733033	316.319248	-43.616077	-319.183638	-351.851639	-10.023693	-6.099864	-4.586043	16.068890	-356.971713	-332.532559	-0.596120	-8.726734	-10.905931	2.285170	355.603872	336.818721	-1.948485	-11.627686	65.171539	11.014358	-323.290494	355.626466	-8.398667	
-0.618139	33.120100	-2.535863	-3.692284	4.675503	72.468223	-4.632803	-0.458527	5.419142	-357.641672	-342.287326	-0.239716	357.131621	336.337302	-13.729479	41.297477	23.529426	11.743993	-0.772427	11.337122	9.067428	116.702043	-125.551578	125.117260	-185.055747	-196.557485	127.312441	335.856621	-337.791586	-24.338036	-21.557403	3.735103	73.799085	285.405867	315.607433	-43.424600	-319.150880	-352.602632	-9.870094	-5.854859	-2.005972	16.393055	-357.070286	-334.214534	-0.499626	-9.203805	-11.246691	2.220002	356.899340	336.178186	-1.156804	-7.892108	58.859078	7.076726	-323.538812	355.036584	-7.323067	
-0.733040	33.230693	-2.498498	-3.904409	4.032102	72.375421	-4.344428	-0.168978	5.498924	-356.544389	-342.463790	-0.324677	356.480923	336.326838	-14.733918	43.045405	23.627524	10.083026	-1.070935	9.765807	8.754587	116.971235	-124.495152	126.231701	-185.154511	-196.024935	127.399198	337.312298	-337.893301	-25.297345	-22.391555	5.665068	73.638542	285.095804	314.922993	-42.944127	-318.793552	-353.538149	-9.700647	-5.494419	0.372687	16.676135	-357.317402	-335.833726	-0.380149	-9.711488	-11.517683	2.028740	358.116562	336.248892	-0.403100	-4.808407	50.663641	3.916008	-323.396935	354.267614	-6.343183	
-0.824252	33.282819	-2.460245	-3.897036	3.726776	72.389997	-4.364866	0.232316	5.516688	-355.798150	-342.644790	-0.373733	356.142610	336.382026	-15.490346	44.422986	23.692095	8.783192	-1.176855	8.339097	8.600488	117.321500	-123.603253	126.748937	-185.771919	-195.106821	127.652284	338.370458	-337.976848	-26.028686	-23.025134	7.185796	73.516131	284.936551	314.369338	-41.936425	-318.360381	-354.488802	-9.518626	-5.489230	2.752639	16.842327	-357.592959	-337.220582	-0.276892	-10.186436	-11.860394	1.793906	358.802067	337.121872	-0.000455	-2.898078	41.872726	2.013119	-322.709928	353.596807	-5.211835	
-0.877840	33.269337	-2.426719	-3.552974	3.867259	72.471693	-4.807491	0.804019	5.459636	-355.380415	-342.803141	-0.394191	355.958850	336.430193	-15.993608	45.307393	23.729873	7.925803	-1.109714	7.128977	8.583859	117.562032	-123.010952	127.545583	-186.036835	-194.528727	127.754396	339.020829	-338.027118	-26.461921	-23.407064	8.243514	73.467876	284.951714	314.020588	-40.616637	-317.694574	-355.276187	-9.389346	-6.052259	5.291601	16.912919	-357.810378	-338.467775	-0.199929	-10.785046	-12.301994	1.550128	-1.062127	-21.411239	0.044884	-1.924763	33.352803	1.015406	-321.614037	353.215655	-3.854996	
-0.897175	33.187846	-2.383840	-3.262815	4.351551	72.549803	-5.470452	1.135615	5.352417	-355.220889	-342.922014	-0.396164	355.876478	336.477840	-16.280261	45.679413	23.745978	7.544330	-0.895612	6.257957	8.685773	117.652532	-122.655140	128.320195	-186.031275	-194.069520	127.734479	339.288053	-338.040014	-26.593122	-23.554918	8.909280	73.505210	285.106431	313.861609	-39.061858	-316.800284	-355.961391	-9.303792	-6.931104	7.614253	16.959535	-357.953320	-339.486374	-0.148818	-11.523393	-12.829831	1.303136	-1.072805	-20.061998	0.006760	-1.607651	25.985792	0.538879	-320.658876	352.971053	-2.552458	
-0.890160	33.045658	-2.311190	-3.359693	4.913453	72.645050	-6.027089	0.929177	5.228971	-355.237009	-342.953979	-0.392108	355.973795	336.548082	-16.437150	45.721244	23.744122	7.549323	-0.726061	5.768459	8.775385	117.814435	-122.375253	128.585711	-186.053077	-193.305864	127.706256	339.216637	-338.038484	-26.569063	-23.511361	9.221033	73.608564	285.421440	313.733065	-37.324548	-315.976645	-356.559142	-9.224330	-7.667761	9.311139	17.016485	-358.026922	-339.942740	-0.126245	-12.545590	-13.371165	1.001139	-0.872724	-19.374977	0.101967	-1.682663	20.843925	0.324049	-320.507902	352.782239	-1.493799	
-0.851406	32.866417	-2.184947	-3.702985	5.307401	72.843112	-6.327498	0.383599	5.122532	-355.348341	-342.857592	-0.391990	356.165696	336.573900	-16.483855	45.589865	23.734908	7.731813	-0.741193	5.616312	8.757100	117.979589	-122.179404	128.985551	-185.621327	-192.854784	127.539231	339.055663	-338.040642	-26.547707	-23.413888	9.202592	73.678744	285.847889	313.584276	-35.683264	-315.390342	-356.923574	-9.163515	-7.943465	10.527042	17.085446	-358.082520	-339.530388	-0.129586	-14.223853	-13.731776	0.479686	-0.385128	-19.168859	0.365107	-1.939363	18.300878	0.244153	-321.766760	352.999002	-0.747010	
-0.759549	32.700801	-2.000694	-3.646956	5.536085	73.292620	-6.637418	0.185425	5.040890	-355.376754	-342.685006	-0.404621	356.101219	336.476419	-16.622295	45.327128	23.727967	7.941423	-0.904182	5.613029	8.646609	118.090457	-122.126702	129.720903	-184.633587	-193.098322	127.204552	339.068613	-338.052663	-26.619842	-23.331577	8.983296	73.691674	286.329636	313.567474	-34.454301	-315.066482	-356.959145	-9.149877	-7.945454	11.890466	17.172770	-358.064898	-338.279043	-0.164596	343.591892	346.278232	-0.357558	0.010912	-18.601909	0.561275	-2.285870	17.699156	0.249508	-324.581345	353.978150	-0.563878	
-0.624237	32.583614	-1.769213	-3.320602	5.560566	73.955483	-6.860388	0.213737	4.997671	-355.309928	-342.448709	-0.430617	355.771785	336.403036	-16.871323	44.885864	23.720843	8.228464	-1.095221	5.724212	8.522756	118.376041	-122.171071	129.656508	-184.078320	-193.416772	127.022104	339.159481	-338.065531	-26.713188	-23.190932	8.708214	73.735893	286.824880	313.746616	-33.554861	-314.935506	-356.889368	-9.154222	-7.557627	13.112129	17.242380	-357.966844	-336.174061	-0.238036	341.477593	346.772437	-1.213847	0.341713	-17.697991	0.701718	-2.745319	18.233164	0.324223	-327.933219	355.311075	-0.712908	
-0.465363	32.540065	-1.479712	-3.385415	5.196040	74.737581	-6.598648	-0.211767	5.011559	-355.277498	-342.149219	-0.459685	355.636629	336.629279	-17.027157	44.255858	23.705581	8.688673	-1.335718	6.177506	8.381176	118.881160	-122.387971	128.709365	-184.494674	-193.754430	127.146317	339.279529	-338.081213	-26.828219	-23.048340	8.268948	73.743515	287.286819	313.939337	-32.894276	-314.837588	-356.839590	-9.164795	-6.182265	13.153976	17.245279	-357.790106	-332.533187	-0.381484	339.463616	348.171369	-2.033967	0.969725	-16.997487	0.996606	-3.150408	19.657315	0.462013	-331.165920	355.670589	-0.497568	
-0.294373	32.569145	-1.133851	-3.661832	4.493254	75.619426	-6.013930	-0.857908	5.081835	-355.255232	-341.836752	-0.489230	355.655098	336.942211	-17.223252	43.581312	23.678081	9.295261	-1.617686	6.966726	8.224798	119.162182	-122.928648	127.898512	-185.082576	-194.655332	127.287812	339.414302	-338.111102	-27.027167	-22.907284	7.593974	73.695676	287.575026	314.018239	-32.558220	-314.691258	-356.674845	-9.215228	-3.857023	11.960773	17.279301	-357.357564	-327.139770	-0.688104	337.786723	350.803096	-3.169544	1.861781	-16.081859	1.397606	-3.323109	21.238181	0.597633	-334.048888	354.903614	-0.297868	
